<svg width="227" height="39" viewBox="0 0 227 39" fill="none" xmlns="http://www.w3.org/2000/svg">
<path d="M66.3891 8.73294L75.752 27.0132H71.4273L69.2263 22.5639H59.8024L57.7545 27.0132H53.4596L62.2013 8.73294H66.3891ZM61.0473 19.8817H67.8942L64.3127 12.6455L61.0473 19.8817Z" fill="white"/>
<path d="M92.8171 27.0132L88.394 19.8854H87.6172L83.1679 27.0132H78.8792L84.4539 18.0624L78.8792 9.13889H83.1679L87.6172 16.2368H88.394L92.8171 9.13889H97.1021L91.5274 18.0624L97.1021 27.0132H92.8171Z" fill="white"/>
<path d="M101.688 27.0132V9.13889H105.333V27.0132H101.688Z" fill="white"/>
<path d="M115.92 27.0132C115.201 27.0149 114.49 26.8745 113.825 26.6001C113.161 26.3258 112.558 25.9229 112.05 25.4146C111.542 24.9063 111.139 24.3025 110.865 23.6381C110.591 22.9737 110.451 22.2616 110.452 21.5428V14.5794C110.454 13.8629 110.596 13.1537 110.872 12.4923C111.147 11.831 111.551 11.2305 112.058 10.7252C112.566 10.2199 113.169 9.81965 113.831 9.54747C114.494 9.27528 115.204 9.13644 115.92 9.1389H123.21C123.926 9.13644 124.636 9.27528 125.299 9.54747C125.961 9.81965 126.564 10.2199 127.072 10.7252C127.579 11.2305 127.983 11.831 128.258 12.4923C128.534 13.1537 128.676 13.8629 128.678 14.5794V21.5528C128.679 22.2713 128.538 22.9829 128.264 23.6469C127.99 24.3109 127.587 24.9142 127.079 25.4221C126.571 25.93 125.968 26.3326 125.304 26.6067C124.64 26.8808 123.928 27.0211 123.21 27.0194L115.92 27.0132ZM125.033 21.5466V14.5794C125.032 14.096 124.84 13.6325 124.498 13.2907C124.157 12.9489 123.693 12.7567 123.21 12.7563H115.92C115.438 12.7612 114.977 12.9548 114.637 13.2957C114.296 13.6365 114.102 14.0974 114.097 14.5794V21.5528C114.098 22.0361 114.29 22.4995 114.632 22.8411C114.973 23.1827 115.437 23.3746 115.92 23.3746H123.21C123.451 23.3768 123.689 23.3308 123.912 23.2394C124.135 23.148 124.337 23.0131 124.507 22.8424C124.677 22.6718 124.811 22.4689 124.901 22.2457C124.991 22.0225 125.036 21.7836 125.033 21.5428V21.5466Z" fill="white"/>
<path d="M148.378 27.0132V17.9017L142.914 23.3684L137.437 17.9017V27.0132H133.792V9.13889L142.904 18.2292L152.018 9.14512V27.0132H148.378Z" fill="white"/>
<path d="M39.223 39L24.3166 15.0277L14.3163 31.0478H23.6693L18.7009 39H0L24.3166 0L48.5759 39H39.223Z" fill="#268F44"/>
<path d="M39.223 39C34.255 25.9996 29.2862 12.9996 24.3166 0L48.5759 39H39.223Z" fill="#1B7D39"/>
<path d="M24.3166 15.0277L14.3163 31.0478H23.6693L18.7009 39H0L24.3166 0V15.0277Z" fill="#5DBA64"/>
<path d="M24.3166 15.0277L14.3163 31.0478C17.6527 20.699 20.9861 10.3497 24.3166 0V15.0277Z" fill="#3FB450"/>
<path d="M24.3166 15.0277L14.3163 31.0478H23.6693L18.7009 39H0L24.3166 15.0277Z" fill="#EE6B1F"/>
<path d="M14.3163 31.0478H23.6693L0 39L14.3163 31.0478Z" fill="#C55917"/>
<path d="M23.6742 31.0478L18.7058 39H0L23.6742 31.0478Z" fill="#F27D56"/>
<path d="M164.267 0.745905H163.321V38.2541H164.267V0.745905Z" fill="white"/>
<path d="M176.6 20.7957C176.074 20.8017 175.551 20.7088 175.059 20.5217C174.605 20.3484 174.191 20.0856 173.841 19.7488C173.491 19.4121 173.212 19.0084 173.021 18.5617C172.634 17.6061 172.634 16.5375 173.021 15.5818C173.211 15.1376 173.489 14.7362 173.838 14.4013C174.192 14.0621 174.611 13.7967 175.069 13.6205C176.093 13.2453 177.218 13.2564 178.235 13.6517C178.717 13.8484 179.144 14.159 179.479 14.557L178.608 15.3739C178.357 15.104 178.054 14.8876 177.718 14.7375C177.388 14.5954 177.032 14.5233 176.673 14.5258C176.318 14.5214 175.965 14.5848 175.634 14.7126C175.329 14.8309 175.051 15.0101 174.817 15.2394C174.584 15.47 174.399 15.7447 174.273 16.0475C174.013 16.7055 174.013 17.438 174.273 18.096C174.4 18.3982 174.584 18.6725 174.817 18.9029C175.051 19.1325 175.329 19.3122 175.634 19.4309C175.966 19.5577 176.318 19.6206 176.673 19.6164C177.032 19.619 177.388 19.5469 177.718 19.4047C178.056 19.2531 178.359 19.0331 178.608 18.7585L179.479 19.5753C179.143 19.9736 178.716 20.2857 178.235 20.4856C177.716 20.6978 177.16 20.8033 176.6 20.7957Z" fill="white"/>
<path d="M183.055 20.6973V13.4549H186.034C186.599 13.4405 187.161 13.5445 187.683 13.76C188.117 13.943 188.486 14.2513 188.744 14.6454C189.001 15.0612 189.13 15.5429 189.117 16.0314C189.138 16.507 189.011 16.9773 188.755 17.3784C188.498 17.7795 188.125 18.0918 187.685 18.2728C187.163 18.4919 186.601 18.5976 186.035 18.5829H183.809L184.399 17.9827V20.6936L183.055 20.6973ZM184.399 18.1321L183.809 17.4796H185.972C186.564 17.4796 187.011 17.3521 187.311 17.0973C187.462 16.9653 187.581 16.8007 187.658 16.6161C187.736 16.4314 187.771 16.2315 187.76 16.0314C187.771 15.8319 187.737 15.6326 187.659 15.4487C187.581 15.2648 187.462 15.1012 187.311 14.9704C187.011 14.7213 186.564 14.5968 185.972 14.5968H183.809L184.399 13.9344V18.1321ZM187.792 20.6973L185.962 18.0698H187.398L189.239 20.6973H187.792Z" fill="white"/>
<path d="M194.578 20.6973V17.8332L194.888 18.6501L191.733 13.4562H193.161L195.706 17.6464H194.898L197.432 13.4562H198.757L195.612 18.6501L195.912 17.8332V20.6973H194.578Z" fill="white"/>
<path d="M201.818 20.6973V13.4549H204.797C205.362 13.4405 205.924 13.5445 206.446 13.76C206.881 13.9424 207.25 14.2508 207.507 14.6454C207.764 15.0612 207.894 15.5429 207.881 16.0314C207.893 16.5147 207.763 16.991 207.507 17.4011C207.247 17.7943 206.879 18.1032 206.446 18.2902C205.926 18.5139 205.363 18.6218 204.797 18.6065H202.574L203.162 17.9839V20.6948L201.818 20.6973ZM203.162 18.1321L202.574 17.4696H204.735C205.328 17.4696 205.775 17.3451 206.074 17.096C206.216 16.9586 206.329 16.7941 206.406 16.6123C206.482 16.4304 206.522 16.235 206.522 16.0376C206.522 15.8401 206.482 15.6447 206.406 15.4629C206.329 15.2811 206.216 15.1166 206.074 14.9791C205.775 14.7301 205.328 14.6055 204.735 14.6055H202.574L203.162 13.9431V18.1321Z" fill="white"/>
<path d="M212.772 20.6973V14.5956H210.373V13.4574H216.516V14.5956H214.123V20.6973H212.772Z" fill="white"/>
<path d="M223.106 20.7957C222.574 20.801 222.046 20.7064 221.55 20.5167C221.087 20.3397 220.664 20.0726 220.305 19.731C219.955 19.3951 219.677 18.9918 219.488 18.5455C219.101 17.5972 219.101 16.5351 219.488 15.5868C219.676 15.1417 219.954 14.7403 220.305 14.4075C220.665 14.0681 221.088 13.8024 221.55 13.6255C222.554 13.2572 223.657 13.2572 224.662 13.6255C225.122 13.7983 225.542 14.0621 225.898 14.4013C226.247 14.737 226.523 15.1404 226.711 15.5868C226.908 16.0601 227.006 16.5685 227 17.0811C227.006 17.5904 226.907 18.0955 226.711 18.5654C226.521 19.0153 226.241 19.4217 225.889 19.7597C225.537 20.0978 225.119 20.3605 224.662 20.5317C224.164 20.7154 223.636 20.8049 223.106 20.7957ZM223.106 19.6164C223.451 19.6202 223.793 19.5572 224.114 19.4309C224.414 19.3111 224.687 19.1314 224.916 18.9029C225.146 18.6723 225.327 18.3979 225.449 18.096C225.579 17.7703 225.645 17.422 225.64 17.0711C225.644 16.7211 225.581 16.3736 225.454 16.0475C225.335 15.7436 225.153 15.4682 224.921 15.2394C224.69 15.0117 224.415 14.8325 224.114 14.7126C223.793 14.5854 223.451 14.5219 223.106 14.5258C222.757 14.5228 222.412 14.5862 222.087 14.7126C221.782 14.8307 221.505 15.0124 221.274 15.2456C221.046 15.4785 220.864 15.7522 220.737 16.0525C220.476 16.7049 220.476 17.4324 220.737 18.0848C220.863 18.3873 221.046 18.6632 221.274 18.8979C221.505 19.1304 221.782 19.3119 222.087 19.4309C222.412 19.5582 222.757 19.6228 223.106 19.6214V19.6164Z" fill="white"/>
</svg>
